<?xml version="1.0" encoding="UTF-8" standalone="no"?>
<!-- Created with Inkscape (http://www.inkscape.org/) -->

<svg
   xmlns:dc="http://purl.org/dc/elements/1.1/"
   xmlns:cc="http://creativecommons.org/ns#"
   xmlns:rdf="http://www.w3.org/1999/02/22-rdf-syntax-ns#"
   xmlns:svg="http://www.w3.org/2000/svg"
   xmlns="http://www.w3.org/2000/svg"
   xmlns:sodipodi="http://sodipodi.sourceforge.net/DTD/sodipodi-0.dtd"
   xmlns:inkscape="http://www.inkscape.org/namespaces/inkscape"
   width="230.09653"
   height="53.303719"
   viewBox="0 0 60.879706 14.103275"
   version="1.1"
   id="svg2354"
   inkscape:version="0.92.0 r15299"
   sodipodi:docname="blue shore financial.svg">
  <defs
     id="defs2348">
    <clipPath
       id="clipPath1687"
       clipPathUnits="userSpaceOnUse">
      <path
         inkscape:connector-curvature="0"
         id="path1685"
         d="M 0,0 H 612 V 792 H 0 Z" />
    </clipPath>
    <clipPath
       id="clipPath1623"
       clipPathUnits="userSpaceOnUse">
      <path
         inkscape:connector-curvature="0"
         id="path1621"
         d="M 0,0 H 612 V 792 H 0 Z" />
    </clipPath>
    <clipPath
       id="clipPath1609"
       clipPathUnits="userSpaceOnUse">
      <path
         inkscape:connector-curvature="0"
         id="path1607"
         d="M 0,0 H 612 V 792 H 0 Z" />
    </clipPath>
  </defs>
  <sodipodi:namedview
     id="base"
     pagecolor="#ffffff"
     bordercolor="#666666"
     borderopacity="1.0"
     inkscape:pageopacity="0.0"
     inkscape:pageshadow="2"
     inkscape:zoom="3.5160553"
     inkscape:cx="114.04826"
     inkscape:cy="25.65186"
     inkscape:document-units="mm"
     inkscape:current-layer="layer1"
     showgrid="false"
     fit-margin-top="0"
     fit-margin-left="0"
     fit-margin-right="0"
     fit-margin-bottom="0"
     units="px"
     inkscape:window-width="1280"
     inkscape:window-height="744"
     inkscape:window-x="-4"
     inkscape:window-y="-4"
     inkscape:window-maximized="1" />
  <metadata
     id="metadata2351">
    <rdf:RDF>
      <cc:Work
         rdf:about="">
        <dc:format>image/svg+xml</dc:format>
        <dc:type
           rdf:resource="http://purl.org/dc/dcmitype/StillImage" />
        <dc:title></dc:title>
      </cc:Work>
    </rdf:RDF>
  </metadata>
  <g
     inkscape:label="Layer 1"
     inkscape:groupmode="layer"
     id="layer1"
     transform="translate(-140.66997,-201.23734)">
    <g
       id="g2548"
       transform="translate(0.26458306,-0.26457837)">
      <path
         d="m 154.66512,211.17198 h -1.87607 v -8.24018 h 1.87607 c 1.3843,0 2.91394,0.22683 2.91394,1.97026 0,0.94403 -0.54927,1.6249 -1.44462,1.87431 v 0.0243 c 1.14617,0.21625 1.83832,0.9077 1.83832,2.11526 0,2.02953 -1.6958,2.25601 -3.30764,2.25601 m 0,-7.45208 h -0.56162 v 2.71145 h 0.56162 c 1.0033,0 1.60055,-0.34607 1.60055,-1.43298 0,-1.09961 -0.64488,-1.27847 -1.60055,-1.27847 m 0,3.49991 h -0.56162 v 3.16512 h 0.56162 c 1.15852,0 1.99355,-0.20284 1.99355,-1.57691 0,-1.26542 -0.88336,-1.58821 -1.99355,-1.58821"
         style="fill:#32546e;fill-opacity:1;fill-rule:nonzero;stroke:none;stroke-width:0.35277778"
         id="path1613"
         inkscape:connector-curvature="0" />
      <path
         inkscape:connector-curvature="0"
         id="path1615"
         style="fill:#32546e;fill-opacity:1;fill-rule:nonzero;stroke:none;stroke-width:0.35277778"
         d="m 159.34991,202.93184 h 1.20579 v 8.24018 h -1.20579 z" />
      <path
         d="m 165.6774,211.17198 v -1.34937 h -0.0233 c -0.38277,0.83608 -1.00366,1.48096 -1.98332,1.48096 -0.95462,0 -1.43298,-0.77611 -1.43298,-1.66018 v -4.15642 h 1.20614 v 3.55952 c 0,0.50201 0.0247,1.36067 0.7165,1.36067 1.12253,0 1.52964,-1.68275 1.52964,-2.56646 v -2.35373 h 1.20615 v 5.68501 z"
         style="fill:#32546e;fill-opacity:1;fill-rule:nonzero;stroke:none;stroke-width:0.35277778"
         id="path1627"
         inkscape:connector-curvature="0" />
      <path
         d="m 169.45282,207.68505 c 0,1.34937 0.63218,2.98521 2.20945,2.98521 0.36971,0 0.73977,-0.0819 1.08691,-0.23884 v 0.54999 c -0.57327,0.23812 -1.03999,0.32243 -1.66053,0.32243 -1.97062,0 -2.84304,-1.37336 -2.84304,-3.22403 0,-1.62525 0.68087,-2.72345 2.42535,-2.72345 1.53988,0 2.18581,0.87207 2.18581,2.32869 z m 1.16981,-1.82739 c -0.72884,0 -1.08726,0.62018 -1.13383,1.27812 h 2.18476 c 0,-0.66887 -0.29916,-1.27812 -1.05093,-1.27812"
         style="fill:#32546e;fill-opacity:1;fill-rule:nonzero;stroke:none;stroke-width:0.35277778"
         id="path1631"
         inkscape:connector-curvature="0" />
      <path
         d="m 176.19614,211.3037 c -0.58491,0 -1.52823,-0.10795 -2.08986,-0.31115 v -1.2767 c 0.66781,0.39334 1.50495,0.72848 2.29341,0.72848 0.7874,0 1.48096,-0.31044 1.48096,-1.1945 0,-1.88807 -3.88126,-1.76707 -3.88126,-4.33529 0,-1.57656 1.32468,-2.11455 2.69805,-2.11455 0.63359,0 1.27811,0.0963 1.89935,0.21484 v 1.13489 c -0.58455,-0.32244 -1.37336,-0.56233 -2.04188,-0.56233 -0.63358,0 -1.24283,0.34678 -1.24283,1.03999 0,1.73179 3.88197,1.68346 3.88197,4.26473 0,1.7907 -1.4217,2.41159 -2.99791,2.41159"
         style="fill:#b5ab87;fill-opacity:1;fill-rule:nonzero;stroke:none;stroke-width:0.35277778"
         id="path1635"
         inkscape:connector-curvature="0" />
      <path
         d="m 183.84125,211.17198 v -3.55882 c 0,-0.50095 -0.0247,-1.36208 -0.7172,-1.36208 -1.12359,0 -1.52999,1.68487 -1.52999,2.56823 v 2.35267 h -1.20545 v -8.24018 h 1.20545 v 3.90454 h 0.024 c 0.38242,-0.83467 1.01671,-1.4799 1.99461,-1.4799 0.95603,0 1.43334,0.7754 1.43334,1.66052 v 4.15502 z"
         style="fill:#b5ab87;fill-opacity:1;fill-rule:nonzero;stroke:none;stroke-width:0.35277778"
         id="path1639"
         inkscape:connector-curvature="0" />
      <path
         d="m 188.864,211.3037 c -1.84997,0 -2.5086,-1.28976 -2.5086,-2.97462 0,-1.6831 0.65863,-2.97286 2.5086,-2.97286 1.85138,0 2.51989,1.27706 2.51989,2.97286 0,1.69615 -0.66851,2.97462 -2.51989,2.97462 m 0,-5.44618 c -1.13418,0 -1.19415,1.66052 -1.19415,2.47156 0,0.81315 0.06,2.47332 1.19415,2.47332 1.14653,0 1.20615,-1.66017 1.20615,-2.47332 0,-0.81104 -0.0596,-2.47156 -1.20615,-2.47156"
         style="fill:#b5ab87;fill-opacity:1;fill-rule:nonzero;stroke:none;stroke-width:0.35277778"
         id="path1643"
         inkscape:connector-curvature="0" />
      <path
         d="m 193.84776,208.56943 v 2.60244 h -1.20579 v -5.68501 h 1.20579 v 1.44639 h 0.024 c 0.40499,-0.82444 0.83573,-1.49331 1.84009,-1.57692 v 1.25413 c -1.33879,0.0353 -1.86408,0.60924 -1.86408,1.95897"
         style="fill:#b5ab87;fill-opacity:1;fill-rule:nonzero;stroke:none;stroke-width:0.35277778"
         id="path1647"
         inkscape:connector-curvature="0" />
      <path
         d="m 197.61691,207.68505 c 0,1.34937 0.63359,2.98521 2.21051,2.98521 0.36935,0 0.73942,-0.0819 1.08549,-0.23884 v 0.54999 c -0.57185,0.23812 -1.03822,0.32243 -1.65911,0.32243 -1.97097,0 -2.84339,-1.37336 -2.84339,-3.22403 0,-1.62525 0.68016,-2.72345 2.4257,-2.72345 1.53987,0 2.1844,0.87207 2.1844,2.32869 z m 1.17052,-1.82739 c -0.72814,0 -1.08691,0.62018 -1.13348,1.27812 h 2.18475 c 0,-0.66887 -0.2988,-1.27812 -1.05127,-1.27812"
         style="fill:#b5ab87;fill-opacity:1;fill-rule:nonzero;stroke:none;stroke-width:0.35277778"
         id="path1651"
         inkscape:connector-curvature="0" />
      <path
         d="m 140.66997,209.23516 v -6.49076 c 0,-0.5401 0.50941,-0.9779 1.05375,-0.9779 h 7.95831 c 0.54363,0 0.91581,0.4378 0.91581,0.9779 l -0.004,0.38418 c -0.60536,0.10654 -1.54234,1.33949 -2.52412,1.9371 -0.51082,0.31186 -0.76482,0.12136 -0.81315,-0.13053 -0.0543,-0.20814 -0.0617,-0.30656 -0.2286,-0.28293 -0.38488,0.18945 -0.65511,0.46497 -0.97261,0.74507 -0.42933,0.42545 -0.85302,0.8756 -1.2947,1.3014 -0.17356,0.10477 -0.30021,0.28504 -0.54857,0.19861 -0.34219,-0.20496 -0.37253,-0.44203 -0.7493,-0.1076 -0.6297,0.70309 -1.24142,1.42805 -1.94698,2.05917 -0.25505,0.19614 -0.46355,0.37183 -0.77611,0.38946 z"
         style="fill:#32546e;fill-opacity:1;fill-rule:nonzero;stroke:none;stroke-width:0.35277778"
         id="path1655"
         inkscape:connector-curvature="0" />
      <path
         d="m 150.5983,204.77206 v 6.13234 c 0,0.53904 -0.44097,0.97825 -0.98531,0.97825 h -7.95972 c -0.54293,0 -0.98319,-0.43921 -0.98319,-0.97825 v -0.79199 l 0.0801,0.004 c 0.7941,0.004 1.88524,-1.2573 2.56398,-1.77094 0.32456,-0.22261 0.44662,-0.22402 0.66781,0.11923 0.25365,0.18733 0.47026,-0.10265 0.65299,-0.26987 0.6029,-0.68263 1.28341,-1.65841 2.1396,-1.90712 0.27058,-0.055 0.30127,0.16404 0.49283,0.21555 0.20214,0.0265 0.28752,-0.0325 0.48119,-0.13617 0.7867,-0.42157 2.25284,-1.81222 2.84374,-1.71732 z"
         style="fill:#b5ab87;fill-opacity:1;fill-rule:nonzero;stroke:none;stroke-width:0.35277778"
         id="path1659"
         inkscape:connector-curvature="0" />
      <path
         d="m 175.2569,213.47516 v -0.25859 h -1.09855 v 2.09056 h 0.38911 v -0.95638 h 0.67099 v -0.2607 h -0.67099 v -0.61489 z"
         style="fill:#32546e;fill-opacity:1;fill-rule:nonzero;stroke:none;stroke-width:0.35277778"
         id="path1663"
         inkscape:connector-curvature="0" />
      <path
         d="m 177.36884,213.21594 v 2.09127 h 0.38806 v -2.09198 z"
         style="fill:#32546e;fill-opacity:1;fill-rule:nonzero;stroke:none;stroke-width:0.35277778"
         id="path1667"
         inkscape:connector-curvature="0" />
      <path
         d="m 181.15813,213.21594 -0.0332,7.1e-4 -7.1e-4,1.50636 -0.74753,-1.48943 -0.009,-0.0176 h -0.37853 l -0.0325,7.1e-4 v 2.09126 h 0.33161 v -1.55857 l 0.78035,1.55787 0.38911,7e-4 v -2.09126 z"
         style="fill:#32546e;fill-opacity:1;fill-rule:nonzero;stroke:none;stroke-width:0.35277778"
         id="path1671"
         inkscape:connector-curvature="0" />
      <path
         d="m 184.55411,213.2382 -0.007,-0.0222 h -0.38276 l -0.69815,2.09197 h 0.35595 l 0.18521,-0.60219 h 0.65088 l 0.18379,0.60148 0.40499,7.1e-4 z m -0.46567,1.20791 0.24589,-0.80363 0.24306,0.80363 z"
         style="fill:#32546e;fill-opacity:1;fill-rule:nonzero;stroke:none;stroke-width:0.35277778"
         id="path1675"
         inkscape:connector-curvature="0" />
      <path
         d="m 188.48307,213.21594 -0.0332,7.1e-4 -7.1e-4,1.50495 -0.74683,-1.48696 -0.01,-0.018 -0.41134,-7.1e-4 v 2.09197 h 0.33337 v -1.55504 l 0.77082,1.53705 0.009,0.018 h 0.38841 v -2.09197 z"
         style="fill:#32546e;fill-opacity:1;fill-rule:nonzero;stroke:none;stroke-width:0.35277778"
         id="path1679"
         inkscape:connector-curvature="0" />
      <path
         d="m 192.24379,213.83076 7.1e-4,-0.0332 c 0,-0.37888 -0.27235,-0.61419 -0.70909,-0.61419 -0.52881,0 -0.83149,0.37924 -0.83149,1.04034 0,0.33585 0.0857,1.1169 0.88511,1.1169 0.2212,0 0.40852,-0.0455 0.55598,-0.13441 l 0.0162,-0.01 v -0.36266 l -0.0533,0.042 c -0.12241,0.0967 -0.26388,0.18662 -0.46637,0.18662 -0.3496,0 -0.5274,-0.29986 -0.5274,-0.89147 0,-0.22366 0.0388,-0.74577 0.39546,-0.74577 0.26388,0 0.29245,0.2607 0.29245,0.37288 v 0.0328 z"
         style="fill:#32546e;fill-opacity:1;fill-rule:nonzero;stroke:none;stroke-width:0.35277778"
         id="path1691"
         inkscape:connector-curvature="0" />
      <path
         d="m 194.12787,213.21523 v 2.09197 h 0.38841 v -2.09126 z"
         style="fill:#32546e;fill-opacity:1;fill-rule:nonzero;stroke:none;stroke-width:0.35277778"
         id="path1695"
         inkscape:connector-curvature="0" />
      <path
         d="m 197.38718,213.2382 -0.007,-0.0222 h -0.38347 l -0.69744,2.09126 h 7.1e-4 l -7.1e-4,7.1e-4 h 0.33126 l 0.0243,-7.1e-4 0.18415,-0.60148 h 0.65158 l 0.18486,0.60219 h 0.40463 z m -0.46567,1.20791 0.24554,-0.80363 0.24341,0.80363 z"
         style="fill:#32546e;fill-opacity:1;fill-rule:nonzero;stroke:none;stroke-width:0.35277778"
         id="path1699"
         inkscape:connector-curvature="0" />
      <path
         d="m 201.01077,215.03043 h -0.74789 v -1.81363 l -0.35666,-7.1e-4 -0.0324,7.1e-4 v 2.09127 h 1.13771 z"
         style="fill:#32546e;fill-opacity:1;fill-rule:nonzero;stroke:none;stroke-width:0.35277778"
         id="path1703"
         inkscape:connector-curvature="0" />
    </g>
  </g>
</svg>
